<!DOCTYPE svg PUBLIC "-//W3C//DTD SVG 1.1//EN" "http://www.w3.org/Graphics/SVG/1.1/DTD/svg11.dtd">
<!-- Uploaded to: SVG Repo, www.svgrepo.com, Transformed by: SVG Repo Mixer Tools -->
<svg width="800px" height="800px" viewBox="0 0 17 17" version="1.1" xmlns="http://www.w3.org/2000/svg" xmlns:xlink="http://www.w3.org/1999/xlink" class="si-glyph si-glyph-triangle-double-arrow-left" fill="#000000">
<g id="SVGRepo_bgCarrier" stroke-width="0"/>
<g id="SVGRepo_tracerCarrier" stroke-linecap="round" stroke-linejoin="round"/>
<g id="SVGRepo_iconCarrier"> <title>1223</title> <defs> </defs> <g stroke="none" stroke-width="1" fill="none" fill-rule="evenodd"> <g transform="translate(1.000000, 1.000000)" fill="#000000"> <path d="M0.446,9.052 C-0.134,8.471 -0.134,7.53 0.446,6.948 L6.89,0.506 C7.471,-0.076 8.993,-0.333 8.993,1.506 L8.993,14.494 C8.993,16.395 7.472,16.076 6.89,15.495 L0.446,9.052 L0.446,9.052 Z" class="si-glyph-fill"> </path> <path d="M7.446,9.052 C6.866,8.471 6.866,7.53 7.446,6.948 L13.89,0.506 C14.471,-0.076 15.993,-0.333 15.993,1.506 L15.993,14.494 C15.993,16.395 14.472,16.076 13.89,15.495 L7.446,9.052 L7.446,9.052 Z" class="si-glyph-fill"> </path> </g> </g> </g>
</svg>