<!DOCTYPE svg PUBLIC "-//W3C//DTD SVG 1.1//EN" "http://www.w3.org/Graphics/SVG/1.1/DTD/svg11.dtd">
<!-- Uploaded to: SVG Repo, www.svgrepo.com, Transformed by: SVG Repo Mixer Tools -->
<svg height="800px" width="800px" version="1.1" id="Layer_1" xmlns="http://www.w3.org/2000/svg" xmlns:xlink="http://www.w3.org/1999/xlink" viewBox="0 0 504 504" xml:space="preserve" fill="#0f0f0f" stroke="#0f0f0f">
<g id="SVGRepo_bgCarrier" stroke-width="0"/>
<g id="SVGRepo_tracerCarrier" stroke-linecap="round" stroke-linejoin="round"/>
<g id="SVGRepo_iconCarrier"> <polygon style="fill:#c29e61;" points="252,90.3 334.8,42.3 500,138.3 417.2,186.7 "/> <polygon style="fill:#c29e61;" points="252,90.3 86.8,186.3 252,282.3 417.2,186.7 "/> <polygon style="fill:#c29e61;" points="252,90.3 169.2,42.3 4,138.3 86.8,186.7 "/> <polygon style="fill:#c29e61;" points="252,282.3 252,462.3 88,366.7 88,282.7 "/> <g> <polygon style="fill:#c29e61;" points="416,278.7 416,362.3 252,458.3 252,278.3 "/> <polygon style="fill:#c29e61;" points="252,282.7 169.2,331.1 4,234.7 86.8,186.7 "/> </g> <polygon style="fill:#c29e61;" points="417.2,186.7 500,234.7 334.8,331.1 252,282.7 "/> <path d="M417.2,190.7c-0.8,0-1.2,0-2-0.4l-147.6-86c-2-1.2-2.4-3.6-1.6-5.6c1.2-2,3.6-2.4,5.6-1.6l145.6,84.8l74.8-43.6L334.8,46.7 L254,93.5c-2,1.2-4.4,0.4-5.6-1.6c-1.2-2-0.4-4.4,1.6-5.6l82.8-48c1.2-0.8,2.8-0.8,4,0l165.2,96c1.2,0.8,2,2,2,3.6s-0.8,2.8-2,3.6 l-82.8,48.4C418.8,190.3,418,190.7,417.2,190.7z"/> <path d="M86.8,190.7c-0.8,0-1.2,0-2-0.4L2,141.9c-1.2-0.8-2-2-2-3.6s0.8-2.8,2-3.6l165.2-96c1.2-0.8,2.8-0.8,4,0l82.8,48 c1.2,0.8,2,2,2,3.6s-0.8,2.8-2,3.6l-145.2,84.8c-2,1.2-4.4,0.4-5.6-1.6c-1.2-2-0.4-4.4,1.6-5.6L244,90.3l-74.8-43.2L12,138.7 l76.8,44.8c2,1.2,2.4,3.6,1.6,5.6C89.2,189.9,88,190.7,86.8,190.7z"/> <path d="M250,466.3c-0.8,0-1.2,0-2-0.4L84,370.3c-1.2-0.8-2-2-2-3.6v-81.2c0-2.4,1.6-4,4-4s4,1.6,4,4v78.8l156,90.8V289.5 c0-2.4,1.6-4,4-4s4,1.6,4,4v172.8c0,1.6-0.8,2.8-2,3.6C251.2,465.9,250.8,466.3,250,466.3z"/> <path d="M250,466.3c-1.2,0-2.8-0.8-3.6-2c-1.2-2-0.4-4.4,1.6-5.6l162-94.8v-74.4c0-2.4,1.6-4,4-4s4,1.6,4,4v76.8 c0,1.6-0.8,2.8-2,3.6l-164,96C251.2,465.9,250.8,466.3,250,466.3z"/> <path d="M169.2,335.1c-0.8,0-1.2,0-2-0.4L2,238.3c-1.2-0.8-2-2-2-3.6s0.8-2.8,2-3.6l82.8-48c1.2-0.8,2.8-0.8,4,0L232,266.3 c2,1.2,2.4,3.6,1.6,5.6c-1.2,2-3.6,2.4-5.6,1.6l-141.2-82L12,234.7l157.2,91.6l80.4-47.2c2-1.2,4.4-0.4,5.6,1.6 c1.2,2,0.4,4.4-1.6,5.6l-82.8,48.4C170.8,334.7,170,335.1,169.2,335.1z"/> <path d="M334.8,335.1c-0.8,0-1.2,0-2-0.4L250,286.3c-2-1.2-2.4-3.6-1.6-5.6c1.2-2,3.6-2.4,5.6-1.6l80.4,47.2l157.2-91.6l-76.8-44.4 c-2-1.2-2.4-3.6-1.6-5.6c1.2-2,3.6-2.4,5.6-1.6l82.8,48c1.2,0.8,2,2,2,3.6s-0.8,2.8-2,3.6l-165.2,96.4 C336,334.7,335.2,335.1,334.8,335.1z"/> <path d="M252,286.7c-1.2,0-2.8-0.8-3.6-2c-1.2-2-0.4-4.4,1.6-5.6l146.8-85.2c2-1.2,4.4-0.4,5.6,1.6c1.2,2,0.4,4.4-1.6,5.6L254,286.3 C253.2,286.3,252.8,286.7,252,286.7z"/> <path d="M250,269.5c-2.4,0-4-1.6-4-4v-172c0-2.4,1.6-4,4-4s4,1.6,4,4v172C254,267.9,252.4,269.5,250,269.5z"/> </g>
</svg>